<svg xmlns="http://www.w3.org/2000/svg" xmlns:xlink="http://www.w3.org/1999/xlink" fill="none" version="1.1" width="48" height="48" viewBox="0 0 48 48"><defs><clipPath id="master_svg0_0_3279"><rect x="0" y="0" width="48" height="48" rx="0"/></clipPath><linearGradient x1="0.5" y1="-3.0616171314629196e-17" x2="0.5" y2="1" id="master_svg1_0_988"><stop offset="0%" stop-color="#FD5B71" stop-opacity="1"/><stop offset="100%" stop-color="#FD5B71" stop-opacity="1"/></linearGradient></defs><g clip-path="url(#master_svg0_0_3279)"><g><path d="M0 8C4.90527396329193e-16 3.5817220013536524 3.5817220013536533 0 8 0L40 0C44.418277998646346 0 48 3.5817220013536533 48 8L48 40C48 44.418277998646346 44.418277998646346 48 40 48L8 48C3.5817220013536533 48 0 44.418277998646346 0 40Z" fill="url(#master_svg1_0_988)" fill-opacity="1"/></g><g><g><path d="M20.24996578125,29.195279052734374C20.05130578125,29.195479052734377,19.85938578125,29.123279052734375,19.71012578125,28.992179052734375C19.71012578125,28.992179052734375,14.71012478125,24.617149052734376,14.71012478125,24.617149052734376C14.62218578125,24.540159052734374,14.55171578125,24.445259052734375,14.50343438125,24.338819052734376C14.45515308125,24.232369052734377,14.43017578125,24.116839052734374,14.43017578125,23.999959052734376C14.43017578125,23.883079052734374,14.45515308125,23.767549052734374,14.50343438125,23.661109052734375C14.55171578125,23.554659052734376,14.62218578125,23.459769052734373,14.71012478125,23.382769052734375C14.71012478125,23.382769052734375,19.71012578125,19.007772052734374,19.71012578125,19.007772052734374C19.87386578125,18.864493452734376,20.08781578125,18.792128252734376,20.30491578125,18.806596372734376C20.52200578125,18.821064552734374,20.72446578125,18.921181052734376,20.86774578125,19.084921052734376C21.011025781249998,19.248661052734374,21.08338578125,19.462612052734375,21.06891578125,19.679708052734377C21.05444578125,19.896799052734377,20.954335781250002,20.099259052734375,20.79059578125,20.242539052734376C20.79059578125,20.242539052734376,16.49567578125,23.999959052734376,16.49567578125,23.999959052734376C16.49567578125,23.999959052734376,20.790205781250002,27.757379052734375,20.790205781250002,27.757379052734375C20.91589578125,27.867269052734375,21.00506578125,28.012889052734373,21.04580578125,28.174799052734375C21.08654578125,28.336699052734375,21.076905781249998,28.507189052734375,21.01818578125,28.663469052734374C20.95946578125,28.819779052734376,20.85446578125,28.954379052734375,20.71719578125,29.049479052734377C20.57991578125,29.144479052734376,20.41692578125,29.195379052734374,20.24996578125,29.195279052734374C20.24996578125,29.195279052734374,20.24996578125,29.195279052734374,20.24996578125,29.195279052734374Z" fill="#FFFFFF" fill-opacity="1"/></g><g><path d="M27.749978078125,29.195279052734374C27.582991078125,29.195379052734374,27.419938078125,29.144579052734375,27.282605078125002,29.049579052734373C27.145272078125,28.954579052734374,27.040202078125,28.819979052734375,26.981434078125,28.663659052734374C26.922666168125,28.507349052734376,26.913000278125,28.336839052734376,26.953727378125,28.174889052734375C26.994454478125,28.012949052734378,27.083635078125,27.867289052734375,27.209352078125,27.757379052734375C27.209352078125,27.757379052734375,31.504285078125,23.999959052734376,31.504285078125,23.999959052734376C31.504285078125,23.999959052734376,27.209743078125,20.242539052734376,27.209743078125,20.242539052734376C27.046002078125,20.099259052734375,26.945885478125,19.896799052734377,26.931417298125,19.679708052734377C26.916949178125,19.462612052734375,26.989314778125,19.248661052734374,27.132594078125,19.084921052734376C27.275873078125,18.921181052734376,27.478329078125,18.821064552734374,27.695425078124998,18.806596372734376C27.912521078125,18.792128252734376,28.126475078125,18.864493452734376,28.290215078125,19.007772052734374C28.290215078125,19.007772052734374,33.290225078125,23.382769052734375,33.290225078125,23.382769052734375C33.378165078125,23.459769052734373,33.448635078125,23.554659052734376,33.496915078125,23.661109052734375C33.545195078125,23.767549052734374,33.570175078125,23.883079052734374,33.570175078125,23.999959052734376C33.570175078125,24.116839052734374,33.545195078125,24.232369052734377,33.496915078125,24.338819052734376C33.448635078125,24.445259052734375,33.378165078125,24.540149052734375,33.290225078125,24.617149052734376C33.290225078125,24.617149052734376,28.290215078125,28.992179052734375,28.290215078125,28.992179052734375C28.140895078125,29.123379052734375,27.948785078125,29.195679052734377,27.749978078125,29.195279052734374C27.749978078125,29.195279052734374,27.749978078125,29.195279052734374,27.749978078125,29.195279052734374Z" fill="#FFFFFF" fill-opacity="1"/></g><g><path d="M22.125063640625,31.070294958496092C21.997316640625,31.070294958496092,21.871341640625,31.040394958496094,21.757176640625,30.983094958496096C21.643010640625,30.92579495849609,21.543808640625,30.842594958496093,21.467476640625,30.740194958496094C21.391144540625,30.63769495849609,21.339791340625,30.518894958496094,21.317507940625,30.393094958496093C21.295224570625,30.267294958496095,21.302627380625,30.137994958496094,21.339126540625,30.015594958496095C21.339126540625,30.015594958496095,25.089131640625,17.515611958496095,25.089131640625,17.515611958496095C25.117371640625,17.409538958496093,25.166621640625,17.310214958496093,25.233951640625,17.223521958496093C25.301291640625,17.136829958496094,25.385341640625,17.064532958496095,25.481121640625,17.010913958496094C25.576901640625,16.957296158496092,25.682471640625,16.923447358496094,25.791581640625,16.911372848496093C25.900681640625,16.899298358496093,26.011101640625,16.909244008496092,26.116291640625,16.940620558496093C26.221481640625,16.971997058496093,26.319301640625,17.024165958496095,26.403961640625,17.094037958496095C26.488621640625,17.163908958496094,26.558401640625,17.250060958496093,26.609161640625,17.347390958496092C26.659921640625,17.444719958496094,26.690621640625,17.551246958496094,26.699461640625,17.660659958496094C26.708301640625,17.770072958496094,26.695091640625,17.880147958496092,26.660611640625,17.984364958496094C26.660611640625,17.984364958496094,22.910611640625,30.484394958496093,22.910611640625,30.484394958496093C22.860161640625,30.653594958496093,22.756481640625,30.801994958496095,22.614951640625,30.907494958496095C22.473431640625,31.013094958496094,22.301621640625,31.070194958496096,22.125063640625,31.070294958496092C22.125063640625,31.070294958496092,22.125063640625,31.070294958496092,22.125063640625,31.070294958496092Z" fill="#FFFFFF" fill-opacity="1"/></g></g></g></svg>