<svg xmlns="http://www.w3.org/2000/svg" xmlns:xlink="http://www.w3.org/1999/xlink" fill="none" version="1.1" width="48" height="48" viewBox="0 0 48 48"><defs><clipPath id="master_svg0_0_3202"><rect x="0" y="0" width="48" height="48" rx="0"/></clipPath><linearGradient x1="0.010416653007268906" y1="0.020833346992731094" x2="0.9583333730697631" y2="0.9583333730697632" id="master_svg1_0_11"><stop offset="0%" stop-color="#656BC5" stop-opacity="1"/><stop offset="100%" stop-color="#3A419A" stop-opacity="1"/></linearGradient></defs><g clip-path="url(#master_svg0_0_3202)"><g><path d="M0 8C4.90527396329193e-16 3.5817220013536524 3.5817220013536533 0 8 0L40 0C44.418277998646346 0 48 3.5817220013536533 48 8L48 40C48 44.418277998646346 44.418277998646346 48 40 48L8 48C3.5817220013536533 48 0 44.418277998646346 0 40Z" fill="url(#master_svg1_0_11)" fill-opacity="1"/></g><g><path d="M32.819900000000004,32.1423C33.7417,32.1423,34.3065,31.1316,33.8234,30.3465C33.8234,30.3465,32.5719,28.3129,32.5719,28.3129C32.5719,28.3129,15.42808,28.3129,15.42808,28.3129C15.42808,28.3129,14.176649,30.3465,14.176649,30.3465C13.693539,31.1316,14.258345,32.1423,15.18013,32.1423C15.18013,32.1423,32.819900000000004,32.1423,32.819900000000004,32.1423ZM22.821730000000002,30.6695C22.64277,30.6695,22.497700000000002,30.814500000000002,22.497700000000002,30.993499999999997C22.497700000000002,31.1724,22.64277,31.317500000000003,22.821730000000002,31.317500000000003C22.821730000000002,31.317500000000003,25.2372,31.317500000000003,25.2372,31.317500000000003C25.4161,31.317500000000003,25.5612,31.1724,25.5612,30.993499999999997C25.5612,30.814500000000002,25.4161,30.6695,25.2372,30.6695C25.2372,30.6695,22.821730000000002,30.6695,22.821730000000002,30.6695ZM16.842,16C16.19126,16,15.66373,16.52753,15.66373,17.17827C15.66373,17.17827,15.66373,27.7827,15.66373,27.7827C15.66373,27.7827,32.3952,27.7827,32.3952,27.7827C32.3952,27.7827,32.3952,17.17827,32.3952,17.17827C32.3952,16.52753,31.8676,16,31.2169,16C31.2169,16,16.842,16,16.842,16ZM17.13657,17.2961C17.00642,17.2961,16.90092,17.4016,16.90092,17.53175C16.90092,17.53175,16.90092,26.3099,16.90092,26.3099C16.90092,26.439999999999998,17.00642,26.5455,17.13657,26.5455C17.13657,26.5455,30.8634,26.5455,30.8634,26.5455C30.9936,26.5455,31.0991,26.439999999999998,31.0991,26.3099C31.0991,26.3099,31.0991,17.53175,31.0991,17.53175C31.0991,17.4016,30.9936,17.2961,30.8634,17.2961C30.8634,17.2961,17.13657,17.2961,17.13657,17.2961Z" fill-rule="evenodd" fill="#FFFFFF" fill-opacity="1"/></g></g></svg>