<svg xmlns="http://www.w3.org/2000/svg" xmlns:xlink="http://www.w3.org/1999/xlink" fill="none" version="1.1" width="48" height="48" viewBox="0 0 48 48"><defs><clipPath id="master_svg0_0_3193"><rect x="0" y="0" width="48" height="48" rx="0"/></clipPath><linearGradient x1="0.5" y1="-3.0616171314629196e-17" x2="0.5" y2="1" id="master_svg1_0_15"><stop offset="0%" stop-color="#FAC438" stop-opacity="1"/><stop offset="100%" stop-color="#F2BD33" stop-opacity="1"/></linearGradient></defs><g clip-path="url(#master_svg0_0_3193)"><g><path d="M0 8C4.90527396329193e-16 3.5817220013536524 3.5817220013536533 0 8 0L40 0C44.418277998646346 0 48 3.5817220013536533 48 8L48 40C48 44.418277998646346 44.418277998646346 48 40 48L8 48C3.5817220013536533 48 0 44.418277998646346 0 40Z" fill="url(#master_svg1_0_15)" fill-opacity="1"/></g><g><path d="M22.00781,20.83203C22.46094,20.95703,23.51172,22.12109,23.98047,22.6875C24.418,21.9375,25.477899999999998,21.13802,25.9531,20.83203C25.5938,19.76953,24.488300000000002,18.501302,23.98047,18C23.121090000000002,18.609375,22.307290000000002,20.14193,22.00781,20.83203ZM22.88672,29.3477C22.567709999999998,28.5078,22.21094,26.23438,23.33594,23.85938C22.74349,22.85026,20.92188,20.75,18.375,20.42188C17.69792,22.67448,17.65234,27.61328,22.88672,29.3477ZM24.664099999999998,23.85938C22.88672,27.02344,24.2148,29.523400000000002,24.2148,29.523400000000002C30.2695,28.293,30.3021,22.67448,29.625,20.42188C27.0781,20.75,25.256500000000003,22.85026,24.664099999999998,23.85938ZM20.60156,29.582C18.92839,29.6732,15.26562,28.6211,14,23.68359C14.481771,23.52734,15.74219,23.26172,16.92969,23.44922C16.994790000000002,24.83594,17.82031,28.0039,20.60156,29.582ZM34,23.68359C32.7344,28.6211,29.0716,29.6732,27.398400000000002,29.582C30.1797,28.0039,31.0052,24.83594,31.0703,23.44922C32.2578,23.26172,33.5182,23.52734,34,23.68359Z" fill-rule="evenodd" fill="#FFFFFF" fill-opacity="1"/></g></g></svg>