<svg xmlns="http://www.w3.org/2000/svg" xmlns:xlink="http://www.w3.org/1999/xlink" fill="none" version="1.1" width="48" height="48" viewBox="0 0 48 48"><defs><clipPath id="master_svg0_0_3190"><rect x="0" y="0" width="48" height="48" rx="0"/></clipPath><linearGradient x1="-0.08333335071802139" y1="-0.031249985098838806" x2="1" y2="0.9583334326744082" id="master_svg1_0_17"><stop offset="0%" stop-color="#00BFFF" stop-opacity="1"/><stop offset="100%" stop-color="#008BFF" stop-opacity="1"/></linearGradient></defs><g clip-path="url(#master_svg0_0_3190)"><g><path d="M0 8C4.90527396329193e-16 3.5817220013536524 3.5817220013536533 0 8 0L40 0C44.418277998646346 0 48 3.5817220013536533 48 8L48 40C48 44.418277998646346 44.418277998646346 48 40 48L8 48C3.5817220013536533 48 0 44.418277998646346 0 40Z" fill="url(#master_svg1_0_17)" fill-opacity="1"/></g><g><path d="M23.13281,14.761719C23.13281,14.341033,23.47385,14,23.89453,14C24.0992,14,24.28501,14.0807192,24.42188,14.212059L24.42188,14.15625C24.43257,14.184569,24.44417,14.215124,24.45671,14.24773C24.57382,14.375751,24.64778,14.543907,24.65557,14.729173C24.97783,15.45149,25.56125,16.49392,26.53125,17.14453C27.8125,18.00391,28.6667,18.63542,28.9336,18.84375C29.779899999999998,19.4362,31.3125,21.32422,30.6719,24.136699999999998C30.0313,26.949199999999998,29.0768,27.782600000000002,28.6797,27.8477C28.25,27.918100000000003,27.4102,27.4961,27.8594,26.675800000000002L28.25,26.168C28.0413,24.916,27.2431,22.90853,24.65625,21.988889999999998L24.65625,30.9922L24.65557,30.9922C24.61658,32.658699999999996,22.9179,34,20.82813,34C18.71391,34,17,32.6271,17,30.9336C17,29.240099999999998,18.71391,27.8672,20.82813,27.8672C21.69343,27.8672,22.49168,28.0972,23.13281,28.485L23.13281,14.761719Z" fill-rule="evenodd" fill="#FFFFFF" fill-opacity="1"/></g></g></svg>