<svg xmlns="http://www.w3.org/2000/svg" xmlns:xlink="http://www.w3.org/1999/xlink" fill="none" version="1.1" width="36" height="36" viewBox="0 0 36 36"><defs><linearGradient x1="0.5" y1="-3.0616171314629196e-17" x2="0.5" y2="1" id="master_svg0_0_749"><stop offset="0%" stop-color="#F77258" stop-opacity="1"/><stop offset="100%" stop-color="#EF5639" stop-opacity="1"/></linearGradient></defs><g><g><rect x="0" y="0" width="36" height="36" rx="18" fill="url(#master_svg0_0_749)" fill-opacity="1"/></g><g><g><path d="M16.34367433227539,21.78746520446777C16.34367433227539,22.595145204467773,15.70706433227539,23.249975204467773,14.921854332275391,23.249975204467773C14.13664833227539,23.249975204467773,13.50003433227539,22.595145204467773,13.50003433227539,21.78746520446777C13.50003433227539,21.78746520446777,13.50003433227539,14.212485204467773,13.50003433227539,14.212485204467773C13.50003433227539,13.404805204467774,14.13664833227539,12.749975204467773,14.921854332275391,12.749975204467773C15.70706433227539,12.749975204467773,16.34367433227539,13.404805204467774,16.34367433227539,14.212485204467773C16.34367433227539,14.212485204467773,16.34367433227539,21.78746520446777,16.34367433227539,21.78746520446777ZM22.43719433227539,21.78746520446777C22.43719433227539,22.595145204467773,21.80057433227539,23.249975204467773,21.015374332275393,23.249975204467773C20.23016433227539,23.249975204467773,19.59355433227539,22.595145204467773,19.59355433227539,21.78746520446777C19.59355433227539,21.78746520446777,19.59355433227539,14.212485204467773,19.59355433227539,14.212485204467773C19.59376433227539,13.404805204467774,20.23037433227539,12.749975204467773,21.015374332275393,12.749975204467773C21.80057433227539,12.749975204467773,22.43719433227539,13.404805204467774,22.43719433227539,14.212485204467773C22.43719433227539,14.212485204467773,22.43719433227539,21.78746520446777,22.43719433227539,21.78746520446777Z" fill-rule="evenodd" fill="#FFFFFF" fill-opacity="1"/></g></g></g></svg>