<svg xmlns="http://www.w3.org/2000/svg" xmlns:xlink="http://www.w3.org/1999/xlink" fill="none" version="1.1" width="20" height="20" viewBox="0 0 20 20"><defs><clipPath id="master_svg0_0_3188"><rect x="0" y="0" width="20" height="20" rx="0"/></clipPath></defs><g clip-path="url(#master_svg0_0_3188)"><g><path d="M0.744076,13.5727C0.561236,13.3899,0.561236,13.0934,0.744076,12.9106C0.744076,12.9106,2.28903,11.3656,2.28903,11.3656C2.47187,11.1828,2.76831,11.1828,2.95115,11.3656C2.95115,11.3656,5.04787,13.4624,5.04787,13.4624C5.04787,13.4624,13.4624,5.04787,13.4624,5.04787C13.4624,5.04787,11.3656,2.95115,11.3656,2.95115C11.1828,2.76831,11.1828,2.47187,11.3656,2.28903C11.3656,2.28903,12.9106,0.744076,12.9106,0.744076C13.0934,0.561235,13.3899,0.561236,13.5727,0.744076C13.5727,0.744076,14.1521,1.32343,14.1521,1.32343C14.1521,1.32343,15.3384,0.13713,15.3384,0.13713C15.5212,-0.0457104,15.8176,-0.0457098,16.0005,0.13713C16.0005,0.13713,17.104,1.24067,17.104,1.24067C17.104,1.24067,17.2144,1.13031,17.2144,1.13031C17.4734,0.871291,17.8934,0.871291,18.1524,1.13031C18.1524,1.13031,18.8697,1.84761,18.8697,1.84761C19.1287,2.10664,19.1287,2.5266,18.8697,2.78562C18.8697,2.78562,18.7593,2.89598,18.7593,2.89598C18.7593,2.89598,19.8629,3.99951,19.8629,3.99951C20.0457,4.18235,20.0457,4.47879,19.8629,4.66164C19.8629,4.66164,18.6766,5.84794,18.6766,5.84794C18.6766,5.84794,19.2559,6.4273,19.2559,6.4273C19.4388,6.61014,19.4388,6.90658,19.2559,7.08942C19.2559,7.08942,17.711,8.63437,17.711,8.63437C17.5281,8.81721,17.2317,8.81721,17.0488,8.63437C17.0488,8.63437,14.9521,6.53765,14.9521,6.53765C14.9521,6.53765,6.53765,14.9521,6.53765,14.9521C6.53765,14.9521,8.63437,17.0488,8.63437,17.0488C8.81721,17.2317,8.81721,17.5281,8.63437,17.711C8.63437,17.711,7.08942,19.2559,7.08942,19.2559C6.90658,19.4388,6.61014,19.4388,6.4273,19.2559C6.4273,19.2559,5.84794,18.6766,5.84794,18.6766C5.84794,18.6766,4.66164,19.8629,4.66164,19.8629C4.4788,20.0457,4.18235,20.0457,3.99951,19.8629C3.99951,19.8629,2.89597,18.7593,2.89597,18.7593C2.89597,18.7593,2.78562,18.8697,2.78562,18.8697C2.5266,19.1287,2.10664,19.1287,1.84761,18.8697C1.84761,18.8697,1.13031,18.1524,1.13031,18.1524C0.871291,17.8934,0.871291,17.4734,1.13031,17.2144C1.13031,17.2144,1.24067,17.104,1.24067,17.104C1.24067,17.104,0.13713,16.0005,0.13713,16.0005C-0.0457101,15.8176,-0.04571,15.5212,0.13713,15.3384C0.13713,15.3384,1.32343,14.1521,1.32343,14.1521C1.32343,14.1521,0.744076,13.5727,0.744076,13.5727Z" fill="#FFFFFF" fill-opacity="1"/></g></g></svg>