<svg xmlns="http://www.w3.org/2000/svg" xmlns:xlink="http://www.w3.org/1999/xlink" fill="none" version="1.1" width="48" height="48" viewBox="0 0 48 48"><defs><clipPath id="master_svg0_0_3183"><rect x="0" y="0" width="48" height="48" rx="0"/></clipPath><linearGradient x1="-2.220446049250313e-16" y1="-2.220446049250313e-16" x2="1" y2="1" id="master_svg1_0_21"><stop offset="0%" stop-color="#64C590" stop-opacity="1"/><stop offset="100%" stop-color="#40A76F" stop-opacity="1"/></linearGradient></defs><g clip-path="url(#master_svg0_0_3183)"><g><path d="M0 8C4.90527396329193e-16 3.5817220013536524 3.5817220013536533 0 8 0L40 0C44.418277998646346 0 48 3.5817220013536533 48 8L48 40C48 44.418277998646346 44.418277998646346 48 40 48L8 48C3.5817220013536533 48 0 44.418277998646346 0 40Z" fill="url(#master_svg1_0_21)" fill-opacity="1"/></g><g><path d="M23.452080000000002,30.5805L23.452080000000002,19.36569C23.452080000000002,19.21249,23.41981,19.06048,23.342370000000003,18.92829C22.759050000000002,17.93244,21.08292,16.230868,18.14904,16.0411141L17.09234,16.00197719C16.79881,15.9824117,16.32917,16.0998193,16.32917,16.726009L16.32917,27.293C16.30308,27.5734,16.423099999999998,28.1383,17.11191,28.154C17.97292,28.1735,21.59308,28.3497,23.452080000000002,30.5805ZM24.5479,30.5805L24.5479,19.36569C24.5479,19.21249,24.580199999999998,19.06048,24.657600000000002,18.92829C25.241,17.93244,26.917099999999998,16.230868,29.851,16.0411141L30.9077,16.00197719C31.2012,15.9824117,31.6708,16.0998193,31.6708,16.726009L31.6708,27.293C31.6969,27.5734,31.5769,28.1383,30.8881,28.154C30.0271,28.1735,26.4069,28.3497,24.5479,30.5805ZM22.39539,31.1284C21.22128,30.808799999999998,18.05511,30.3887,14.783263999999999,31.2654C14.431034,31.3241,14.0161816,31.151899999999998,14.00052689,30.3065L14.00052689,19.13293C13.9874813,18.85897,14.211866,18.34236,15.21377,18.4676L15.21377,27.508200000000002C15.1942,28.2518,15.74212,29.2581,16.89666,29.269399999999997C20.90819,29.308500000000002,22.39539,31.1284,22.39539,31.1284ZM25.604599999999998,31.1284C26.7787,30.808799999999998,29.9449,30.3887,33.2167,31.2654C33.569,31.3241,33.9838,31.151899999999998,33.9995,30.3065L33.9995,19.13293C34.0125,18.85897,33.7881,18.34236,32.7862,18.4676L32.7862,27.508200000000002C32.805800000000005,28.2518,32.2579,29.2581,31.1033,29.269399999999997C27.0918,29.308500000000002,25.604599999999998,31.1284,25.604599999999998,31.1284Z" fill-rule="evenodd" fill="#FFFFFF" fill-opacity="1"/></g></g></svg>